<svg width="15" height="14" viewBox="0 0 15 14" fill="none" xmlns="http://www.w3.org/2000/svg">
<path d="M12.6429 12.6875C12.6429 13.0356 12.5074 13.3694 12.2663 13.6156C12.0252 13.8617 11.6981 14 11.3571 14H3.64286C3.30186 14 2.97484 13.8617 2.73372 13.6156C2.4926 13.3694 2.35714 13.0356 2.35714 12.6875V3.5H12.6429V12.6875ZM5.35714 5.6875C5.35714 5.57147 5.31199 5.46019 5.23162 5.37814C5.15124 5.2961 5.04224 5.25 4.92857 5.25C4.81491 5.25 4.7059 5.2961 4.62553 5.37814C4.54515 5.46019 4.5 5.57147 4.5 5.6875V11.8125C4.5 11.9285 4.54515 12.0398 4.62553 12.1219C4.7059 12.2039 4.81491 12.25 4.92857 12.25C5.04224 12.25 5.15124 12.2039 5.23162 12.1219C5.31199 12.0398 5.35714 11.9285 5.35714 11.8125V5.6875ZM7.92857 5.6875C7.92857 5.57147 7.88342 5.46019 7.80305 5.37814C7.72267 5.2961 7.61366 5.25 7.5 5.25C7.38634 5.25 7.27733 5.2961 7.19695 5.37814C7.11658 5.46019 7.07143 5.57147 7.07143 5.6875V11.8125C7.07143 11.9285 7.11658 12.0398 7.19695 12.1219C7.27733 12.2039 7.38634 12.25 7.5 12.25C7.61366 12.25 7.72267 12.2039 7.80305 12.1219C7.88342 12.0398 7.92857 11.9285 7.92857 11.8125V5.6875ZM10.5 5.6875C10.5 5.57147 10.4548 5.46019 10.3745 5.37814C10.2941 5.2961 10.1851 5.25 10.0714 5.25C9.95776 5.25 9.84876 5.2961 9.76838 5.37814C9.68801 5.46019 9.64286 5.57147 9.64286 5.6875V11.8125C9.64286 11.9285 9.68801 12.0398 9.76838 12.1219C9.84876 12.2039 9.95776 12.25 10.0714 12.25C10.1851 12.25 10.2941 12.2039 10.3745 12.1219C10.4548 12.0398 10.5 11.9285 10.5 11.8125V5.6875ZM1.92857 0.875004H5.14286L5.39464 0.363677C5.44798 0.25436 5.53014 0.162405 5.63188 0.0981575C5.73362 0.0339095 5.8509 -8.27959e-05 5.97054 4.7941e-06H9.03214C9.15151 -0.000463619 9.26858 0.0334019 9.36996 0.0977214C9.47134 0.162041 9.55292 0.254213 9.60536 0.363677L9.85714 0.875004H13.0714C13.1851 0.875004 13.2941 0.921098 13.3745 1.00315C13.4548 1.08519 13.5 1.19647 13.5 1.3125V2.1875C13.5 2.30354 13.4548 2.41482 13.3745 2.49686C13.2941 2.57891 13.1851 2.625 13.0714 2.625H1.92857C1.81491 2.625 1.7059 2.57891 1.62553 2.49686C1.54515 2.41482 1.5 2.30354 1.5 2.1875V1.3125C1.5 1.19647 1.54515 1.08519 1.62553 1.00315C1.7059 0.921098 1.81491 0.875004 1.92857 0.875004Z" fill="#737983"/>
</svg>
