<svg width="14" height="15" viewBox="0 0 14 15" fill="none" xmlns="http://www.w3.org/2000/svg">
<path d="M7.01284 0.500011C8.88334 0.50337 10.5816 1.24046 11.8355 2.4387L12.8436 1.43062C13.2703 1.00387 14 1.30611 14 1.90964V5.69356C14 6.06769 13.6967 6.37097 13.3226 6.37097H9.53866C8.93513 6.37097 8.63289 5.64131 9.05964 5.21454L10.2381 4.03611C9.3669 3.22041 8.23965 2.76857 7.04206 2.75824C4.43405 2.73572 2.23568 4.8463 2.25823 7.54088C2.27963 10.097 4.35197 12.2419 7 12.2419C8.16084 12.2419 9.25798 11.8276 10.1226 11.069C10.2565 10.9515 10.4586 10.9587 10.5846 11.0846L11.7041 12.2041C11.8416 12.3416 11.8348 12.5658 11.6905 12.6961C10.4493 13.8173 8.80436 14.5 7 14.5C3.13402 14.5 2.8226e-05 11.366 1.89608e-10 7.50006C-2.82256e-05 3.63852 3.1513 0.493096 7.01284 0.500011Z" fill="url(#paint0_linear_23464_51387)"/>
<defs>
<linearGradient id="paint0_linear_23464_51387" x1="0" y1="7.5" x2="14" y2="7.5" gradientUnits="userSpaceOnUse">
<stop stop-color="#2EBB90"/>
<stop offset="1" stop-color="#4DDF9A"/>
</linearGradient>
</defs>
</svg>
