<svg width="12" height="16" viewBox="0 0 12 16" fill="none" xmlns="http://www.w3.org/2000/svg">
<path d="M7.5 0.0593719H1.5C0.675 0.0593719 0 0.734372 0 1.55937V13.5594C0 14.3844 0.675 15.0594 1.5 15.0594H10.5C11.325 15.0594 12 14.3844 12 13.5594V4.55937L7.5 0.0593719ZM1.5 13.5594V1.55937H6.75V4.55937H10.5V13.5594H1.5ZM5.25 12.8094H6.75V12.0594H7.5C7.9125 12.0594 8.25 11.7219 8.25 11.3094V9.05937C8.25 8.64687 7.9125 8.30937 7.5 8.30937H5.25V7.55937H8.25V6.05937H6.75V5.30937H5.25V6.05937H4.5C4.0875 6.05937 3.75 6.39687 3.75 6.80937V9.05937C3.75 9.47187 4.0875 9.80937 4.5 9.80937H6.75V10.5594H3.75V12.0594H5.25V12.8094Z" fill="url(#paint0_linear_23696_109100)"/>
<defs>
<linearGradient id="paint0_linear_23696_109100" x1="0" y1="7.55937" x2="12" y2="7.55937" gradientUnits="userSpaceOnUse">
<stop stop-color="#2EBB90"/>
<stop offset="1" stop-color="#4DDF9A"/>
</linearGradient>
</defs>
</svg>
