<svg width="16" height="15" viewBox="0 0 16 15" fill="none" xmlns="http://www.w3.org/2000/svg">
<path d="M1.2973 6.16675C0.579459 6.16675 0 6.76231 0 7.50009C0 8.23786 0.579459 8.83342 1.2973 8.83342C2.01514 8.83342 2.59459 8.23786 2.59459 7.50009C2.59459 6.76231 2.01514 6.16675 1.2973 6.16675ZM1.2973 0.83342C0.579459 0.83342 0 1.42898 0 2.16675C0 2.90453 0.579459 3.50009 1.2973 3.50009C2.01514 3.50009 2.59459 2.90453 2.59459 2.16675C2.59459 1.42898 2.01514 0.83342 1.2973 0.83342ZM1.2973 11.5001C0.579459 11.5001 0 12.1045 0 12.8334C0 13.5623 0.588108 14.1668 1.2973 14.1668C2.00649 14.1668 2.59459 13.5623 2.59459 12.8334C2.59459 12.1045 2.01514 11.5001 1.2973 11.5001ZM3.89189 13.7223H16V11.9445H3.89189V13.7223ZM3.89189 8.38898H16V6.6112H3.89189V8.38898ZM3.89189 1.27786V3.05564H16V1.27786H3.89189Z" fill="url(#paint0_linear_23464_51384)"/>
<defs>
<linearGradient id="paint0_linear_23464_51384" 
x1="0" y1="7.50009" x2="16" y2="7.50009" 
gradientUnits="userSpaceOnUse">
<stop stop-color="#2EBB90"/>
<stop offset="1" stop-color="#4DDF9A"/>
</linearGradient>
</defs>
</svg>
