<svg width="16" height="15" viewBox="0 0 16 15" fill="none" xmlns="http://www.w3.org/2000/svg">
<path d="M9.33366 7.60628L8.00033 8.93962L6.66699 7.60628L8.00033 6.27295L9.33366 7.60628ZM8.00033 3.60628L9.41366 5.01962L11.0803 3.35295L8.00033 0.272949L4.92033 3.35295L6.58699 5.01962L8.00033 3.60628ZM4.00033 7.60628L5.41366 6.19295L3.74699 4.52628L0.666992 7.60628L3.74699 10.6863L5.41366 9.01962L4.00033 7.60628ZM12.0003 7.60628L10.587 9.01962L12.2537 10.6863L15.3337 7.60628L12.2537 4.52628L10.587 6.19295L12.0003 7.60628ZM8.00033 11.6063L6.58699 10.1929L4.92033 11.8596L8.00033 14.9396L11.0803 11.8596L9.41366 10.1929L8.00033 11.6063Z" fill="url(#paint0_linear_26388_3054)"/>
<defs>
<linearGradient id="paint0_linear_26388_3054" x1="0.666992" y1="7.60628" x2="15.3337" y2="7.60628" gradientUnits="userSpaceOnUse">
<stop stop-color="#2EBB90"/>
<stop offset="1" stop-color="#4DDF9A"/>
</linearGradient>
</defs>
</svg>
