<svg width="16" height="16" viewBox="0 0 16 16" fill="none" xmlns="http://www.w3.org/2000/svg">
<path d="M13.332 2.66667H2.66536C1.93203 2.66667 1.3387 3.26667 1.3387 4L1.33203 12C1.33203 12.7333 1.93203 13.3333 2.66536 13.3333H13.332C14.0654 13.3333 14.6654 12.7333 14.6654 12V4C14.6654 3.26667 14.0654 2.66667 13.332 2.66667ZM12.6654 12H3.33203C2.96536 12 2.66536 11.7 2.66536 11.3333V5.33333L7.29203 8.22667C7.72536 8.5 8.27203 8.5 8.70537 8.22667L13.332 5.33333V11.3333C13.332 11.7 13.032 12 12.6654 12ZM7.9987 7.33333L2.66536 4H13.332L7.9987 7.33333Z" fill="#737983"/>
</svg>
