<svg width="16" height="17" viewBox="0 0 16 17" fill="none" xmlns="http://www.w3.org/2000/svg">
<path d="M12.668 9.83333V4.5C12.668 3.76666 12.068 3.16666 11.3346 3.16666H2.0013C1.26797 3.16666 0.667969 3.76666 0.667969 4.5V9.83333C0.667969 10.5667 1.26797 11.1667 2.0013 11.1667H11.3346C12.068 11.1667 12.668 10.5667 12.668 9.83333ZM11.3346 9.83333H2.0013V4.5H11.3346V9.83333ZM6.66797 5.16666C5.5613 5.16666 4.66797 6.06 4.66797 7.16666C4.66797 8.27333 5.5613 9.16666 6.66797 9.16666C7.77463 9.16666 8.66797 8.27333 8.66797 7.16666C8.66797 6.06 7.77463 5.16666 6.66797 5.16666ZM15.3346 5.16666V12.5C15.3346 13.2333 14.7346 13.8333 14.0013 13.8333H2.66797C2.66797 13.1667 2.66797 13.2333 2.66797 12.5H14.0013V5.16666C14.7346 5.16666 14.668 5.16666 15.3346 5.16666Z" fill="#737983"/>
</svg>
