<svg width="14" height="14" viewBox="0 0 14 14" fill="none" xmlns="http://www.w3.org/2000/svg">
<path fill-rule="evenodd" clip-rule="evenodd" d="M6.29999 1.40001C3.5938 1.40001 1.4 3.59382 1.4 6.30003C1.4 9.00624 3.5938 11.2001 6.29999 11.2001C7.62009 11.2001 8.81825 10.678 9.69933 9.82915C9.71779 9.80512 9.73802 9.78201 9.76003 9.76C9.78203 9.738 9.80514 9.71777 9.82916 9.69931C10.678 8.81824 11.2 7.62009 11.2 6.30003C11.2 3.59382 9.00618 1.40001 6.29999 1.40001ZM11.2224 10.2324C12.0845 9.15461 12.6 7.78753 12.6 6.30003C12.6 2.82062 9.77938 0 6.29999 0C2.8206 0 0 2.82062 0 6.30003C0 9.77944 2.8206 12.6001 6.29999 12.6001C7.78752 12.6001 9.15464 12.0845 10.2324 11.2223L12.805 13.795C13.0784 14.0683 13.5216 14.0683 13.795 13.795C14.0683 13.5216 14.0683 13.0784 13.795 12.805L11.2224 10.2324Z" fill="#737983"/>
</svg>
